<?xml version="1.0" standalone="no"?>
<!DOCTYPE svg PUBLIC "-//W3C//DTD SVG 20010904//EN"
 "http://www.w3.org/TR/2001/REC-SVG-20010904/DTD/svg10.dtd">
<svg version="1.0" xmlns="http://www.w3.org/2000/svg"
 width="1712.000000pt" height="1712.000000pt" viewBox="0 0 1712.000000 1712.000000"
 preserveAspectRatio="xMidYMid meet">
<metadata>
Created by potrace 1.14, written by Peter Selinger 2001-2017
</metadata>
<g transform="translate(0.000000,1712.000000) scale(0.100000,-0.100000)"
fill="#000000" stroke="none">
<path d="M15 12109 c5 -7 17 -22 26 -34 10 -11 59 -69 109 -130 51 -60 109
-130 130 -155 20 -25 118 -142 216 -260 98 -118 183 -220 189 -227 5 -6 26
-30 45 -54 19 -23 40 -47 45 -53 10 -11 84 -101 115 -139 8 -11 20 -24 25 -31
6 -6 66 -78 135 -161 68 -82 127 -152 130 -155 3 -3 35 -41 70 -85 36 -44 70
-86 77 -93 7 -7 29 -34 50 -60 21 -26 40 -49 43 -52 3 -3 25 -30 49 -60 25
-30 50 -59 56 -65 6 -5 49 -57 95 -115 47 -58 94 -114 105 -126 32 -33 65 -74
65 -79 0 -2 10 -14 23 -27 12 -13 38 -43 57 -67 19 -24 42 -51 50 -60 8 -9 33
-39 55 -66 21 -28 42 -52 45 -55 3 -3 25 -30 50 -60 25 -30 47 -57 50 -60 3
-3 25 -30 50 -60 25 -30 47 -57 50 -60 3 -3 15 -17 26 -32 12 -15 41 -51 66
-80 25 -29 73 -87 107 -128 34 -41 72 -86 84 -100 13 -14 52 -61 87 -105 36
-44 67 -82 70 -85 6 -5 146 -173 170 -203 8 -10 23 -28 33 -40 11 -12 33 -39
50 -61 18 -21 37 -43 42 -50 6 -6 46 -54 89 -106 84 -101 143 -172 173 -206
10 -12 32 -39 48 -60 17 -20 35 -42 40 -48 12 -13 103 -122 125 -149 8 -11 20
-24 25 -31 6 -6 30 -36 55 -66 25 -30 47 -57 50 -60 4 -3 49 -57 100 -120 52
-63 97 -117 100 -120 3 -3 48 -57 100 -120 52 -63 109 -131 127 -150 18 -19
33 -38 33 -41 0 -4 12 -20 28 -37 15 -16 87 -101 160 -190 73 -88 139 -163
147 -166 9 -3 37 -8 63 -12 26 -3 50 -8 53 -10 4 -2 24 -6 45 -9 22 -3 64 -11
94 -16 69 -13 72 -14 148 -24 34 -4 65 -12 68 -16 3 -5 9 -7 13 -5 7 5 182
-23 251 -39 14 -4 39 -8 55 -9 17 -2 44 -6 60 -10 36 -8 55 -11 115 -21 25 -4
54 -9 65 -12 11 -2 36 -6 55 -8 19 -2 46 -7 60 -10 14 -4 36 -8 50 -9 14 -2
39 -6 55 -9 17 -4 44 -9 60 -11 17 -3 73 -12 125 -22 52 -9 104 -18 115 -19
36 -6 90 -16 105 -20 89 -25 188 -24 241 2 50 25 319 143 334 147 6 2 37 15
70 30 33 15 94 42 135 59 41 17 77 34 80 37 3 3 25 12 48 19 24 7 41 15 38 18
-3 4 -46 8 -94 9 -167 5 -722 18 -1197 28 -121 3 -328 8 -460 12 -132 3 -256
5 -275 5 -19 -1 -32 0 -30 3 4 3 198 42 305 61 11 2 31 6 45 9 45 10 75 16
110 21 19 3 42 8 50 10 18 5 61 13 110 21 19 3 41 7 49 10 8 2 30 7 50 10 67
10 81 13 89 18 4 2 29 7 56 10 27 3 65 10 85 15 20 5 52 12 71 16 59 10 74 12
110 20 19 4 47 8 61 9 14 2 30 5 35 9 6 3 28 8 49 11 22 3 76 13 120 22 44 8
95 17 113 19 18 2 36 6 40 9 4 2 27 7 52 11 25 4 47 8 51 11 3 2 24 6 45 9 21
2 50 7 64 11 14 3 34 7 46 9 11 1 45 8 75 14 30 6 65 13 79 16 14 3 36 7 50
10 14 2 39 7 55 10 43 7 74 13 93 19 9 3 37 8 62 11 24 4 47 8 50 10 3 2 26 6
50 10 25 3 63 10 85 15 22 5 56 12 75 15 19 3 42 8 50 10 8 2 31 7 50 10 19 3
42 8 50 11 16 5 70 78 70 94 0 6 4 10 9 10 6 0 16 11 23 24 23 41 92 142 133
192 14 18 25 35 25 38 0 5 56 86 97 141 5 6 26 37 48 70 22 33 42 62 45 65 15
15 90 130 85 130 -3 0 -22 -7 -43 -16 -20 -8 -37 -15 -37 -14 0 2 2 3 -255
-90 -268 -96 -254 -91 -260 -92 -3 -1 -35 -14 -72 -29 -38 -15 -68 -25 -68
-22 0 3 -6 1 -12 -5 -7 -5 -35 -17 -63 -25 -45 -14 -166 -58 -205 -74 -8 -3
-19 -7 -25 -9 -5 -1 -48 -17 -95 -34 -113 -42 -538 -197 -620 -225 -36 -13
-114 -42 -175 -65 -60 -23 -114 -43 -120 -44 -5 -2 -17 -6 -25 -9 -40 -15
-116 -42 -120 -43 -3 0 -14 -4 -25 -8 -11 -4 -31 -12 -45 -17 -14 -5 -38 -14
-55 -20 -16 -7 -32 -13 -35 -13 -10 -2 -136 -49 -165 -61 -16 -7 -41 -16 -55
-20 -14 -3 -34 -10 -45 -15 -11 -5 -78 -30 -150 -55 -127 -46 -282 -103 -338
-124 -53 -20 -26 4 41 37 37 18 112 57 167 87 55 29 143 75 195 102 52 27 131
69 175 92 44 24 112 59 150 79 39 21 72 40 73 45 2 4 11 7 21 7 9 0 21 4 27 9
8 9 83 49 294 157 41 22 77 41 80 44 3 3 37 21 75 41 67 34 232 121 420 221
50 26 128 67 175 90 46 24 89 47 95 51 5 5 34 21 62 35 29 15 92 47 140 72 49
24 91 48 94 53 3 5 12 9 20 11 19 3 97 44 132 68 15 11 27 16 27 12 0 -3 6 -2
12 4 7 5 54 31 103 57 50 26 133 70 185 98 167 88 284 149 335 177 28 15 113
60 190 100 191 99 204 108 211 138 4 15 10 32 15 37 4 6 7 12 6 15 0 3 19 64
43 135 24 72 43 132 43 135 -1 3 3 11 9 18 6 6 7 12 4 12 -4 0 -1 10 6 23 6
12 13 27 14 32 1 6 38 118 83 250 133 389 150 440 148 442 -2 1 -164 -111
-202 -141 -21 -16 -191 -138 -235 -168 -14 -10 -43 -31 -65 -47 -22 -17 -76
-55 -120 -86 -44 -31 -123 -87 -175 -125 -52 -38 -102 -74 -110 -80 -74 -52
-628 -451 -637 -459 -7 -6 -15 -11 -17 -11 -3 0 -14 -6 -23 -14 -53 -44 -185
-136 -193 -136 -6 0 -10 -4 -10 -8 0 -5 -16 -17 -35 -28 -19 -10 -35 -22 -35
-25 0 -4 -15 -16 -32 -27 -18 -11 -54 -35 -79 -54 -154 -111 -245 -175 -270
-193 -15 -11 -143 -103 -284 -205 -141 -102 -267 -192 -280 -200 -13 -9 -36
-25 -52 -37 -15 -12 -75 -55 -133 -97 -58 -41 -110 -80 -117 -85 -7 -6 -16
-11 -22 -11 -5 0 -11 -4 -13 -8 -2 -7 -206 -156 -255 -187 -9 -5 -23 -16 -32
-23 -14 -12 -210 -153 -268 -192 -11 -8 -89 -64 -173 -125 -83 -60 -161 -117
-174 -125 -12 -8 -68 -49 -125 -90 -57 -41 -113 -82 -125 -90 -11 -8 -53 -38
-93 -67 -40 -29 -75 -53 -78 -53 -8 0 106 164 117 168 4 2 8 8 8 13 0 9 37 67
50 79 3 3 73 102 155 220 82 118 153 220 158 225 4 6 33 47 65 92 246 353 299
428 310 439 6 7 12 15 12 19 0 3 19 31 41 62 l42 56 -18 34 c-10 18 -22 33
-27 33 -4 0 -8 5 -8 11 0 6 -13 28 -30 49 -16 21 -30 43 -30 49 0 6 -4 11 -10
11 -5 0 -17 15 -26 33 -9 17 -20 34 -24 37 -3 3 -37 50 -75 105 -38 55 -72
102 -75 105 -3 3 -30 41 -60 85 -61 90 -77 108 -83 98 -5 -9 -38 -120 -37
-128 0 -3 -7 -22 -14 -42 -13 -33 -67 -205 -72 -225 -1 -5 -2 -9 -4 -10 -1 -2
-3 -10 -5 -18 -2 -8 -11 -37 -20 -65 -9 -27 -20 -63 -25 -80 -9 -36 -86 -283
-141 -457 -22 -70 -42 -133 -43 -140 -2 -7 -6 -20 -9 -28 -3 -8 -29 -91 -57
-185 -28 -93 -53 -174 -55 -180 -6 -15 7 807 21 1300 3 94 4 184 3 200 0 17
-1 35 -1 40 0 6 3 127 7 271 l6 261 -113 98 c-106 93 -129 114 -202 179 -16
15 -50 44 -76 66 -26 22 -58 50 -72 62 -13 13 -51 46 -83 73 -32 28 -65 57
-74 66 -9 8 -106 94 -216 189 -110 96 -206 180 -213 187 -20 19 -22 16 -10
-19 5 -18 18 -62 28 -98 44 -155 139 -477 149 -502 6 -16 9 -28 6 -28 -2 0 5
-25 15 -55 10 -30 16 -55 12 -55 -3 0 -1 -5 6 -12 7 -7 12 -21 12 -33 0 -12 5
-26 12 -33 7 -7 9 -12 6 -12 -3 0 5 -37 19 -82 14 -46 28 -96 33 -113 5 -16
20 -70 35 -120 15 -49 28 -94 29 -100 2 -5 11 -37 21 -70 10 -33 20 -64 21
-70 1 -5 10 -37 20 -70 10 -33 19 -64 20 -70 2 -5 12 -39 22 -75 28 -92 140
-472 161 -550 11 -36 31 -105 46 -155 31 -105 78 -263 104 -357 5 -18 21 -73
36 -123 15 -49 28 -94 30 -100 1 -5 4 -17 8 -25 27 -73 10 -60 -28 22 -17 35
-32 65 -35 68 -3 3 -25 43 -49 90 -24 47 -65 126 -91 175 -26 50 -67 128 -91
175 -24 47 -48 88 -54 92 -5 4 -6 8 -2 8 5 0 0 12 -11 28 -18 26 -35 63 -32
71 1 2 -2 7 -7 10 -4 3 -22 33 -39 66 -17 33 -54 103 -81 155 -28 52 -81 154
-118 225 -37 72 -85 162 -105 200 -70 131 -84 160 -82 168 1 4 -3 7 -8 7 -6 0
-10 6 -10 14 0 8 -7 22 -16 30 -8 9 -12 16 -9 16 4 0 -2 15 -13 33 -11 17 -48
86 -82 152 -35 66 -82 156 -105 200 -23 44 -71 134 -105 200 -77 147 -157 300
-220 420 -26 50 -82 158 -125 240 -94 181 -124 236 -137 253 -6 6 -8 12 -4 12
3 0 -8 23 -24 50 -16 28 -26 50 -22 50 4 0 2 4 -4 8 -6 4 -39 63 -74 132 -34
69 -67 128 -72 131 -5 3 -9 9 -8 13 0 4 -13 33 -30 65 -27 50 -39 61 -83 81
-29 13 -77 35 -107 49 -30 14 -57 26 -60 26 -3 1 -36 16 -75 34 -60 29 -173
80 -430 196 -33 15 -93 42 -132 61 -90 42 -186 87 -193 89 -3 1 -18 7 -33 13
-16 7 -32 12 -36 12 -5 0 -14 7 -21 15 -6 8 -15 14 -18 13 -9 -2 -35 9 -155
66 -55 25 -100 46 -102 46 -1 0 -45 20 -96 44 -52 24 -114 53 -139 64 -80 35
-142 64 -270 122 -69 31 -147 67 -175 80 -79 35 -159 72 -169 78 -5 3 -5 -1
-1 -9z"/>
<path d="M11310 10940 c-289 -61 -524 -223 -696 -480 -35 -53 -64 -104 -64
-113 0 -9 -4 -18 -8 -21 -28 -17 -89 -231 -107 -371 -13 -105 3 -255 27 -255
4 0 8 -6 8 -14 0 -21 71 -90 115 -111 58 -28 162 -29 225 -3 95 40 158 135
165 251 4 58 12 127 20 157 32 122 112 240 226 332 39 31 123 74 165 84 83 20
253 9 280 -19 4 -4 14 -7 22 -7 8 0 34 -13 59 -30 24 -16 46 -30 49 -30 3 0
31 -27 64 -60 108 -109 168 -247 176 -400 3 -70 9 -96 35 -148 101 -205 384
-202 486 6 25 50 28 68 27 147 -1 103 -11 180 -30 244 -7 25 -11 48 -8 52 2 4
0 10 -6 14 -5 3 -10 12 -10 19 0 8 -6 29 -14 47 -8 19 -15 39 -17 44 -7 23
-83 163 -105 192 -13 17 -24 34 -24 37 0 14 -158 179 -220 231 -65 54 -269
165 -304 165 -7 0 -16 3 -20 7 -3 4 -12 8 -19 10 -7 1 -41 9 -77 18 -100 24
-316 27 -420 5z"/>
<path d="M14177 10939 c-80 -18 -151 -72 -184 -142 -36 -75 -43 -96 -32 -102
5 -4 7 -10 4 -15 -9 -14 -10 -174 -1 -188 4 -7 4 -17 0 -23 -8 -14 -8 -924 0
-938 4 -6 4 -16 0 -22 -8 -14 -8 -924 0 -938 4 -6 4 -16 0 -23 -4 -6 -6 -95
-5 -197 1 -102 2 -193 2 -201 -4 -117 -2 -300 3 -308 3 -6 3 -13 -1 -15 -9 -6
-8 -120 1 -143 3 -8 2 -14 -2 -14 -4 0 -7 -19 -6 -42 1 -45 13 -51 45 -22 8 8
21 14 27 14 7 0 12 4 12 8 0 8 77 39 118 47 49 9 129 7 172 -5 50 -13 160 -70
160 -82 0 -5 4 -8 9 -8 5 0 8 648 8 1583 l-2 1582 -24 45 c-61 115 -184 175
-304 149z"/>
<path d="M13215 10680 c-251 -55 -290 -408 -58 -521 50 -25 156 -32 198 -14
11 4 25 9 32 10 20 5 72 48 103 86 37 47 65 146 56 203 -18 111 -104 211 -199
232 -39 9 -101 11 -132 4z"/>
<path d="M16742 10679 c-51 -10 -121 -58 -157 -107 -94 -130 -60 -311 75 -397
97 -61 239 -51 320 22 14 13 27 23 31 23 3 0 18 25 33 56 48 97 41 216 -16
297 -58 82 -181 127 -286 106z"/>
<path d="M13240 9762 c0 -4 -12 -9 -26 -10 -85 -7 -191 -113 -211 -212 -3 -13
-6 -745 -4 -878 l1 -43 33 22 c17 13 34 27 35 31 2 4 9 8 16 8 7 0 26 7 42 14
54 27 143 36 228 24 40 -6 166 -66 166 -78 0 -5 6 -10 14 -13 23 -9 22 866 -1
941 -29 97 -126 178 -225 188 -24 3 -49 7 -55 9 -7 2 -13 1 -13 -3z"/>
<path d="M16777 9764 c-2 -3 -14 -7 -27 -9 -40 -8 -112 -47 -141 -78 -16 -16
-40 -53 -53 -81 l-25 -51 -1 -463 c0 -372 2 -462 12 -456 7 4 27 18 44 30 57
44 128 66 219 68 75 2 185 -33 230 -73 42 -38 45 -36 45 36 0 92 0 101 1 153
0 25 1 51 0 58 0 11 -1 242 0 275 0 6 -1 38 -3 70 -2 31 1 57 5 57 5 0 6 4 2
10 -3 5 -6 54 -7 109 0 101 -15 191 -30 191 -4 0 -8 6 -8 13 -1 22 -120 134
-120 112 0 -3 -12 1 -27 8 -16 7 -35 13 -43 12 -8 -1 -27 2 -42 6 -14 4 -28 5
-31 3z"/>
<path d="M11054 9646 c-74 -146 -213 -228 -376 -221 -38 2 -68 2 -68 0 0 -4
303 -466 369 -563 20 -29 41 -61 46 -70 13 -23 83 -129 227 -345 65 -98 118
-182 118 -187 0 -6 4 -10 8 -10 5 0 15 -12 23 -27 8 -16 16 -30 19 -33 3 -3
21 -30 40 -60 19 -30 43 -64 52 -74 10 -11 18 -24 18 -28 0 -11 42 -72 53 -76
4 -2 7 -7 7 -12 0 -9 79 -132 90 -140 4 -3 9 -10 11 -16 2 -6 58 -92 123 -192
l120 -180 25 50 c54 110 175 199 291 215 68 9 115 9 133 0 10 -5 21 -6 24 -4
2 3 -28 54 -68 114 -41 59 -74 110 -74 113 0 3 -8 16 -18 30 -49 67 -437 662
-437 671 0 5 -4 9 -9 9 -5 0 -15 12 -22 28 -20 38 -112 176 -121 180 -5 2 -8
8 -8 13 0 4 -18 34 -39 66 -100 149 -221 334 -221 339 0 4 -13 23 -30 44 -16
21 -30 42 -30 48 0 6 -3 12 -7 14 -8 3 -53 64 -53 70 0 2 -42 68 -94 147 l-94
143 -28 -56z"/>
<path d="M13210 8602 c-100 -27 -188 -119 -205 -213 -4 -19 -7 -473 -7 -1010
0 -753 3 -986 13 -1020 42 -148 206 -233 354 -182 75 25 148 103 174 183 2 8
6 467 7 1020 l3 1006 -30 62 c-57 118 -193 186 -309 154z"/>
<path d="M16739 8602 c-53 -17 -102 -48 -137 -87 -77 -87 -73 -27 -70 -1155
l3 -1005 22 -40 c51 -94 131 -146 231 -150 109 -5 188 34 246 122 37 55 39 69
42 238 2 83 4 159 4 170 0 11 0 27 -1 35 0 8 0 35 0 60 1 25 0 60 -2 78 -2 17
0 32 5 32 4 0 5 6 3 13 -9 22 -10 147 -2 147 5 0 5 5 2 10 -4 6 -6 75 -5 153
1 78 1 147 1 152 -1 32 -1 124 0 185 0 25 1 51 0 58 0 11 -1 242 0 275 0 6 -1
38 -3 70 -2 31 0 57 4 57 4 0 5 6 3 13 -8 19 -11 147 -4 147 4 0 4 17 0 38 -3
20 -4 57 -1 82 10 86 -34 189 -107 249 -58 48 -168 73 -234 53z"/>
<path d="M10604 7544 c-86 -35 -142 -98 -168 -190 -8 -27 -9 -137 -1 -199 22
-180 98 -383 192 -517 54 -77 127 -167 135 -167 4 -1 18 -11 31 -23 63 -61
167 -138 185 -138 6 0 12 -4 14 -8 10 -27 213 -102 338 -126 70 -14 302 -15
355 -3 90 22 153 39 170 47 11 5 50 22 87 39 246 108 469 355 568 627 27 74
49 149 56 194 3 19 9 49 13 65 4 17 7 71 6 120 -1 68 -6 101 -22 137 -24 53
-80 111 -126 131 -69 30 -84 33 -141 31 -63 -3 -145 -39 -178 -77 -33 -39 -68
-105 -70 -131 -1 -14 -5 -26 -8 -26 -3 0 -5 -28 -4 -62 2 -170 -106 -366 -258
-469 -85 -58 -156 -81 -259 -85 -147 -6 -256 42 -375 163 -110 112 -157 226
-168 412 -5 67 -11 93 -32 129 -76 129 -211 179 -340 126z"/>
<path d="M14177 7558 c-83 -18 -146 -66 -186 -143 -18 -35 -35 -101 -33 -130
5 -99 13 -170 21 -210 6 -27 13 -59 14 -70 2 -11 7 -27 10 -35 3 -8 17 -47 31
-87 27 -76 75 -176 88 -181 4 -2 8 -8 8 -14 0 -12 55 -93 89 -132 99 -112 257
-246 289 -246 6 0 12 -4 14 -8 11 -28 245 -113 353 -129 74 -12 370 -6 370 7
0 1 11 3 25 6 47 8 171 54 238 88 159 81 308 213 410 363 81 120 158 301 176
417 4 21 9 42 12 47 2 5 7 61 9 125 2 91 0 126 -13 161 -17 46 -81 122 -118
141 -113 58 -233 45 -325 -36 -54 -47 -77 -105 -89 -218 -6 -54 -17 -124 -26
-154 -16 -57 -67 -159 -100 -200 -32 -40 -118 -121 -139 -131 -11 -5 -27 -13
-35 -19 -17 -10 -68 -31 -117 -47 -54 -18 -181 -14 -258 9 -86 25 -141 62
-223 147 -66 69 -139 198 -145 257 -2 16 -6 34 -9 39 -2 6 -6 33 -7 60 -6 117
-16 158 -44 200 -22 33 -96 105 -106 103 -3 -1 -13 1 -21 4 -8 4 -24 9 -35 14
-29 10 -85 12 -128 2z"/>
<path d="M3187 6895 c-15 -8 -29 -14 -30 -13 -2 1 -83 -34 -142 -62 -87 -41
-233 -108 -297 -135 -63 -27 -75 -40 -68 -70 1 -5 3 -17 5 -25 2 -8 10 -46 19
-85 9 -38 18 -81 20 -95 3 -14 5 -25 6 -25 1 0 4 -13 6 -30 3 -16 9 -43 13
-60 7 -29 8 -28 25 30 9 33 23 78 30 100 l13 40 94 -2 c90 -2 177 -5 469 -19
74 -3 145 -6 158 -5 12 0 50 -10 85 -23 34 -14 121 -45 192 -71 72 -25 148
-53 170 -62 66 -26 77 -30 165 -62 47 -18 92 -34 100 -36 8 -2 89 -31 180 -65
174 -64 228 -84 405 -148 61 -22 171 -62 245 -90 309 -114 467 -172 472 -172
3 0 22 -7 42 -15 20 -8 37 -14 38 -13 7 4 68 -34 293 -183 132 -87 346 -228
475 -313 129 -85 244 -162 255 -170 10 -9 25 -16 32 -16 7 0 13 -4 13 -8 0
-12 46 -32 71 -32 21 0 21 4 -7 106 -8 28 -16 60 -18 70 -2 11 -20 82 -40 158
-19 76 -33 143 -30 147 2 5 15 5 27 0 12 -5 45 -11 72 -15 84 -12 117 -17 139
-22 42 -10 63 -14 211 -39 83 -15 200 -35 260 -46 61 -10 126 -21 145 -24 19
-3 46 -8 60 -10 14 -3 41 -8 60 -11 19 -3 45 -7 58 -10 32 -6 73 -13 107 -19
17 -3 41 -7 55 -10 82 -16 90 -17 90 -6 0 6 -3 11 -7 11 -5 0 -31 22 -59 48
-48 44 -170 154 -213 191 -10 9 -56 50 -101 91 -117 106 -131 119 -194 174
-52 45 -68 78 -27 56 10 -5 21 -7 24 -4 3 3 49 7 104 10 54 2 143 6 198 9 227
11 396 18 492 19 57 0 103 3 103 6 0 3 28 6 63 6 144 3 308 12 314 18 4 3 -1
7 -10 7 -10 1 -20 2 -24 4 -5 1 -26 5 -48 9 -22 5 -65 15 -95 23 -30 8 -66 16
-80 18 -52 8 -94 16 -100 20 -4 3 -22 7 -41 9 -19 3 -54 10 -79 17 -25 6 -56
13 -70 15 -14 3 -43 10 -65 15 -22 5 -49 11 -60 13 -20 4 -50 11 -180 39 -39
9 -82 18 -95 21 -14 2 -68 14 -120 26 -52 12 -106 24 -120 26 -14 3 -43 10
-65 15 -22 6 -49 11 -60 13 -11 2 -20 4 -20 6 0 1 -9 3 -20 4 -11 2 -54 11
-95 20 -41 9 -118 25 -170 37 -52 11 -106 22 -120 25 -14 3 -41 9 -60 14 -19
5 -80 19 -135 30 -55 12 -109 23 -120 26 -11 3 -33 8 -50 11 -34 6 -40 7 -75
16 -14 4 -36 9 -50 11 -14 2 -54 11 -90 20 -36 8 -76 17 -90 20 -25 5 -52 11
-102 22 -15 3 -30 5 -33 5 -2 0 -19 5 -37 10 -18 5 -49 12 -68 15 -19 3 -62
12 -95 21 -73 18 -93 23 -125 27 -14 2 -55 11 -90 19 -55 13 -128 29 -235 52
-11 2 -60 13 -110 24 -49 11 -101 22 -115 25 -14 3 -43 10 -65 15 -22 5 -85
18 -140 30 -55 12 -109 24 -120 27 -32 8 -57 13 -95 19 -19 3 -42 8 -50 11 -8
3 -26 8 -40 10 -14 3 -52 11 -85 19 -33 8 -71 17 -85 19 -14 2 -26 5 -27 7 -2
1 -11 2 -20 3 -10 1 -31 5 -48 9 -44 9 -98 16 -174 23 -84 7 -145 13 -196 18
-70 8 -158 17 -215 21 -30 2 -84 7 -120 10 -36 4 -81 8 -100 10 -37 3 -141 13
-200 20 -19 2 -73 6 -119 10 -47 3 -88 8 -91 10 -4 2 -19 -2 -33 -10z"/>
</g>
</svg>
