<svg width="214" height="90" xmlns="http://www.w3.org/2000/svg" class="iconLeft">
 <!---->

 <!---->
 <!---->
 <!---->
 <!---->
 <g>
  <title>Layer 1</title>
  <g transform="matrix(6.122448921203613,0,0,6.122448921203613,127.77458953857422,-10.714287757873535)" fill="black" id="a6cda028-e738-482f-bb94-51a081e4ed1d">
   <path id="svg_1" d="m0.42,6.52c0,-0.25 0.04,-0.47 0.1,-0.7c0.28,-0.93 1.12,-1.61 2.08,-1.62l0.02,0c1.22,0 2.21,1.05 2.21,2.32c0,0.09 -0.03,0.17 -0.06,0.24c-0.09,0.2 -0.29,0.32 -0.5,0.32c-0.22,0 -0.42,-0.12 -0.5,-0.32c-0.05,-0.07 -0.06,-0.15 -0.06,-0.24c0,-0.32 -0.13,-0.63 -0.34,-0.85c-0.21,-0.22 -0.47,-0.35 -0.75,-0.35c-0.28,0 -0.55,0.13 -0.74,0.35c-0.23,0.22 -0.34,0.53 -0.34,0.85c0,0.09 -0.01,0.17 -0.06,0.24c-0.09,0.2 -0.28,0.32 -0.5,0.32c-0.22,0 -0.41,-0.12 -0.5,-0.32c-0.03,-0.07 -0.06,-0.15 -0.06,-0.24zm3.85,4.37c-0.36,0 -0.67,0.24 -0.77,0.56l-2.73,-4.14c0.07,0.03 0.14,0.03 0.21,0.03c0.36,0 0.67,-0.24 0.77,-0.58l2.73,4.16c-0.07,-0.03 -0.14,-0.03 -0.21,-0.03zm0.56,0.8c0,0.24 -0.04,0.48 -0.11,0.69c-0.28,0.93 -1.11,1.62 -2.09,1.62l-0.01,0c-1.21,0 -2.2,-1.04 -2.2,-2.31c0,-0.1 0.03,-0.18 0.06,-0.25c0.09,-0.18 0.28,-0.31 0.5,-0.31c0.22,0 0.41,0.13 0.5,0.31c0.05,0.07 0.06,0.15 0.06,0.25c0,0.32 0.11,0.63 0.34,0.85c0.19,0.21 0.46,0.34 0.74,0.34c0.28,0 0.54,-0.13 0.75,-0.34c0.21,-0.22 0.34,-0.53 0.34,-0.85c0,-0.1 0.01,-0.18 0.06,-0.25c0.08,-0.18 0.28,-0.31 0.5,-0.31c0.21,0 0.41,0.13 0.5,0.31c0.03,0.07 0.06,0.15 0.06,0.25zm1.96,-6.37c0,0.32 -0.25,0.57 -0.56,0.57c-0.31,0 -0.56,-0.25 -0.56,-0.57c0,-0.31 0.25,-0.56 0.56,-0.56c0.31,0 0.56,0.25 0.56,0.56zm0,3.67c-0.14,-0.14 -0.34,-0.23 -0.56,-0.23c-0.21,0 -0.42,0.09 -0.56,0.23l0,-1.78c0,-0.31 0.25,-0.56 0.56,-0.56c0.31,0 0.56,0.25 0.56,0.56l0,1.78zm0,0.57l0,3.88c0,0.31 -0.25,0.56 -0.56,0.56c-0.31,0 -0.56,-0.25 -0.56,-0.56l0,-3.88l0,-0.05c0.03,-0.28 0.27,-0.51 0.56,-0.51c0.29,0 0.53,0.23 0.56,0.51l0,0.05zm1.96,1.56c-0.14,-0.14 -0.34,-0.23 -0.56,-0.23c-0.21,0 -0.42,0.09 -0.56,0.23l0,-6.33c0,-0.31 0.25,-0.56 0.56,-0.56c0.31,0 0.56,0.25 0.56,0.56l0,6.33zm1.08,2.88c-1.21,0 -2.2,-1.04 -2.2,-2.31c0,-0.31 0.25,-0.56 0.56,-0.56c0.31,0 0.56,0.25 0.56,0.56c0,0.32 0.11,0.63 0.34,0.85c0.19,0.23 0.46,0.34 0.74,0.34c0.28,0 0.54,-0.11 0.75,-0.34c0.21,-0.22 0.34,-0.53 0.34,-0.85c0,-0.31 0.25,-0.56 0.56,-0.56c0.31,0 0.56,0.25 0.56,0.56c0,1.27 -0.99,2.31 -2.21,2.31zm4.17,-8.68c0,0.32 -0.25,0.57 -0.56,0.57c-0.31,0 -0.56,-0.25 -0.56,-0.57c0,-0.31 0.25,-0.56 0.56,-0.56c0.31,0 0.56,0.25 0.56,0.56zm0,3.67c-0.14,-0.14 -0.34,-0.23 -0.56,-0.23c-0.21,0 -0.42,0.09 -0.56,0.23l0,-1.78c0,-0.31 0.25,-0.56 0.56,-0.56c0.31,0 0.56,0.25 0.56,0.56l0,1.78zm0,0.57l0,3.88c0,0.31 -0.25,0.56 -0.56,0.56c-0.31,0 -0.56,-0.25 -0.56,-0.56l0,-3.88l0,-0.05c0.03,-0.28 0.27,-0.51 0.56,-0.51c0.29,0 0.53,0.23 0.56,0.51l0,0.05z"/>
  </g>
  <g fill="black" transform="matrix(1.2318978309631348,0,0,1.2318978309631348,-6.381895065307617,-16.1238956451416)" id="0dd632ba-c022-4631-8761-e24f9a78fa80">
   <path id="svg_2" d="m28.326,24.005l19.713,37.616l-8.966,-30.628l10.861,9.524l-0.444,21.276l5.02,-16.208l4.697,6.683l-9.913,14.142l-44.081,-52.939l23.113,10.534zm64.654,53.003l-43.194,-9.453l-12.085,-1.145l-5.705,2.588l0.854,3.939l0.59,-2.1l7.616,0.327l21.432,7.851l11.39,7.514l-1.345,-5.311l13.26,2.324l-6.597,-5.907l13.784,-0.627zm1.807,-43.253l-3.908,11.536l-36.235,19.121l32.462,-11.802l-5.416,7.799l-27.046,5.218l21.286,0.491l-8.078,3.519l-18.558,-3.227l45.493,-32.655z"/>
  </g>
 </g>
</svg>